<svg xmlns="http://www.w3.org/2000/svg" xmlns:xlink="http://www.w3.org/1999/xlink" width="500" zoomAndPan="magnify" viewBox="0 0 375 374.999991" height="500" preserveAspectRatio="xMidYMid meet" version="1.0"><defs><g/><clipPath id="a48604ed46"><path d="M 181.359375 164.828125 L 187 164.828125 L 187 171 L 181.359375 171 Z M 181.359375 164.828125 " clip-rule="nonzero"/></clipPath><clipPath id="8d959b2b72"><path d="M 188 164.828125 L 193.359375 164.828125 L 193.359375 171 L 188 171 Z M 188 164.828125 " clip-rule="nonzero"/></clipPath><clipPath id="94cc0e3bf9"><path d="M 181.359375 171 L 187 171 L 187 176.828125 L 181.359375 176.828125 Z M 181.359375 171 " clip-rule="nonzero"/></clipPath><clipPath id="6fb8d3d44c"><path d="M 188 171 L 193.359375 171 L 193.359375 176.828125 L 188 176.828125 Z M 188 171 " clip-rule="nonzero"/></clipPath><clipPath id="20c12b0534"><path d="M 103.519531 161.160156 L 150.019531 161.160156 L 150.019531 179.910156 L 103.519531 179.910156 Z M 103.519531 161.160156 " clip-rule="nonzero"/></clipPath><clipPath id="7e65046c67"><path d="M 0.753906 0.160156 L 47.019531 0.160156 L 47.019531 18.910156 L 0.753906 18.910156 Z M 0.753906 0.160156 " clip-rule="nonzero"/></clipPath><clipPath id="2a0af21357"><rect x="0" width="48" y="0" height="19"/></clipPath><clipPath id="b66040087c"><path d="M 127 153.445312 L 248 153.445312 L 248 181.945312 L 127 181.945312 Z M 127 153.445312 " clip-rule="nonzero"/></clipPath><clipPath id="2ca00af839"><path d="M 231.492188 148.242188 L 260.742188 148.242188 L 260.742188 182.742188 L 231.492188 182.742188 Z M 231.492188 148.242188 " clip-rule="nonzero"/></clipPath><clipPath id="2079d4a387"><rect x="0" width="245" y="0" height="37"/></clipPath><clipPath id="2e7e9d3370"><rect x="0" width="200" y="0" height="27"/></clipPath></defs><g clip-path="url(#a48604ed46)"><path fill="#ffffff" d="M 186.511719 164.828125 L 181.605469 164.828125 C 181.46875 164.828125 181.359375 164.9375 181.359375 165.074219 L 181.359375 169.980469 C 181.359375 170.117188 181.46875 170.226562 181.605469 170.226562 L 186.511719 170.226562 C 186.648438 170.226562 186.757812 170.117188 186.757812 169.980469 L 186.757812 165.074219 C 186.757812 164.9375 186.648438 164.828125 186.511719 164.828125 Z M 186.511719 164.828125 " fill-opacity="1" fill-rule="nonzero"/></g><g clip-path="url(#8d959b2b72)"><path fill="#ffffff" d="M 193.382812 164.828125 L 188.476562 164.828125 C 188.339844 164.828125 188.230469 164.9375 188.230469 165.074219 L 188.230469 169.980469 C 188.230469 170.117188 188.339844 170.226562 188.476562 170.226562 L 193.382812 170.226562 C 193.519531 170.226562 193.628906 170.117188 193.628906 169.980469 L 193.628906 165.074219 C 193.628906 164.9375 193.519531 164.828125 193.382812 164.828125 Z M 193.382812 164.828125 " fill-opacity="1" fill-rule="nonzero"/></g><g clip-path="url(#94cc0e3bf9)"><path fill="#ffffff" d="M 186.511719 171.699219 L 181.605469 171.699219 C 181.46875 171.699219 181.359375 171.808594 181.359375 171.945312 L 181.359375 176.851562 C 181.359375 176.988281 181.46875 177.097656 181.605469 177.097656 L 186.511719 177.097656 C 186.648438 177.097656 186.757812 176.988281 186.757812 176.851562 L 186.757812 171.945312 C 186.757812 171.808594 186.648438 171.699219 186.511719 171.699219 Z M 186.511719 171.699219 " fill-opacity="1" fill-rule="nonzero"/></g><g clip-path="url(#6fb8d3d44c)"><path fill="#ffffff" d="M 193.382812 171.699219 L 188.476562 171.699219 C 188.339844 171.699219 188.230469 171.808594 188.230469 171.945312 L 188.230469 176.851562 C 188.230469 176.988281 188.339844 177.097656 188.476562 177.097656 L 193.382812 177.097656 C 193.519531 177.097656 193.628906 176.988281 193.628906 176.851562 L 193.628906 171.945312 C 193.628906 171.808594 193.519531 171.699219 193.382812 171.699219 Z M 193.382812 171.699219 " fill-opacity="1" fill-rule="nonzero"/></g><g clip-path="url(#20c12b0534)"><g transform="matrix(1, 0, 0, 1, 103, 161)"><g clip-path="url(#2a0af21357)"><g clip-path="url(#7e65046c67)"><path fill="#ffffff" d="M 42.011719 9.0625 C 43.648438 9.839844 44.929688 10.566406 45.824219 11.042969 C 46.722656 11.519531 47.214844 11.789062 47.234375 11.753906 C 47.253906 11.714844 46.796875 11.398438 45.9375 10.847656 C 45.078125 10.304688 43.816406 9.53125 42.191406 8.699219 C 41.304688 8.242188 40.386719 7.839844 39.453125 7.492188 C 38.949219 7.308594 38.417969 7.128906 37.855469 6.972656 C 37.285156 6.8125 36.707031 6.679688 36.121094 6.578125 C 35.503906 6.464844 34.875 6.390625 34.25 6.355469 C 33.597656 6.316406 32.941406 6.328125 32.289062 6.382812 C 31.605469 6.4375 30.933594 6.558594 30.28125 6.726562 C 29.609375 6.90625 28.945312 7.128906 28.300781 7.390625 C 26.992188 7.914062 25.777344 8.53125 24.59375 9.0625 C 23.996094 9.335938 23.414062 9.585938 22.835938 9.8125 L 21.96875 10.117188 L 21.109375 10.378906 C 20.023438 10.679688 18.914062 10.894531 17.800781 11.007812 C 16.820312 11.101562 15.839844 11.136719 14.859375 11.101562 C 14.046875 11.070312 13.242188 10.988281 12.4375 10.867188 C 11.730469 10.753906 11.121094 10.625 10.636719 10.5 L 9.980469 10.34375 L 9.507812 10.210938 C 9.246094 10.148438 9.113281 10.109375 9.105469 10.136719 C 9.09375 10.15625 9.226562 10.222656 9.46875 10.324219 C 9.589844 10.378906 9.75 10.4375 9.925781 10.511719 L 10.570312 10.726562 C 11.167969 10.914062 11.765625 11.0625 12.382812 11.183594 C 13.195312 11.34375 14.019531 11.453125 14.839844 11.511719 C 15.839844 11.574219 16.847656 11.566406 17.847656 11.492188 C 18.996094 11.398438 20.136719 11.203125 21.246094 10.902344 C 21.546875 10.820312 21.847656 10.734375 22.136719 10.640625 C 22.433594 10.558594 22.734375 10.445312 23.023438 10.332031 C 23.621094 10.109375 24.21875 9.855469 24.816406 9.585938 C 26.019531 9.042969 27.226562 8.4375 28.496094 7.933594 C 29.121094 7.679688 29.757812 7.464844 30.410156 7.289062 C 31.039062 7.121094 31.683594 7.007812 32.328125 6.953125 C 32.953125 6.894531 33.578125 6.878906 34.214844 6.90625 C 34.820312 6.933594 35.417969 7 36.015625 7.101562 C 36.605469 7.203125 37.164062 7.316406 37.707031 7.464844 C 38.25 7.617188 38.773438 7.765625 39.277344 7.953125 C 40.210938 8.269531 41.125 8.644531 42.011719 9.0625 Z M 0.652344 7.242188 C 0.707031 7.148438 0.773438 7.0625 0.847656 6.988281 C 0.941406 6.878906 1.042969 6.765625 1.144531 6.671875 C 1.445312 6.402344 1.769531 6.15625 2.125 5.960938 C 2.59375 5.699219 3.097656 5.503906 3.621094 5.375 C 4.246094 5.214844 4.902344 5.128906 5.546875 5.121094 C 6.285156 5.121094 7.019531 5.175781 7.75 5.296875 C 8.523438 5.421875 9.308594 5.589844 10.132812 5.765625 C 10.542969 5.851562 10.953125 5.941406 11.375 6.019531 C 11.578125 6.054688 11.792969 6.09375 12.007812 6.128906 C 12.222656 6.167969 12.4375 6.203125 12.652344 6.234375 L 13.28125 6.308594 L 13.925781 6.363281 C 14.140625 6.382812 14.34375 6.402344 14.558594 6.410156 C 14.765625 6.417969 14.980469 6.4375 15.183594 6.4375 L 15.800781 6.449219 C 16.007812 6.449219 16.203125 6.4375 16.398438 6.4375 L 16.699219 6.429688 C 16.800781 6.429688 16.894531 6.417969 16.996094 6.417969 L 17.578125 6.390625 C 18.921875 6.296875 20.25 6.101562 21.566406 5.804688 C 23.808594 5.289062 25.132812 4.71875 25.171875 4.804688 C 25.191406 4.839844 24.871094 5.019531 24.285156 5.28125 C 23.433594 5.644531 22.566406 5.953125 21.675781 6.1875 C 20.351562 6.550781 18.996094 6.785156 17.632812 6.90625 L 17.042969 6.941406 C 16.941406 6.953125 16.847656 6.960938 16.746094 6.960938 L 16.445312 6.972656 C 16.242188 6.980469 16.035156 6.988281 15.828125 6.988281 L 15.203125 6.980469 C 14.988281 6.980469 14.785156 6.972656 14.570312 6.960938 C 14.355469 6.953125 14.140625 6.941406 13.925781 6.925781 L 13.269531 6.867188 L 12.605469 6.785156 C 12.382812 6.765625 12.167969 6.71875 11.945312 6.679688 C 11.730469 6.644531 11.503906 6.617188 11.300781 6.570312 C 10.871094 6.484375 10.457031 6.390625 10.046875 6.308594 C 9.234375 6.121094 8.449219 5.941406 7.703125 5.8125 C 7.003906 5.683594 6.292969 5.605469 5.582031 5.589844 C 4.964844 5.578125 4.347656 5.636719 3.75 5.757812 C 3.257812 5.859375 2.769531 6.019531 2.3125 6.234375 C 1.96875 6.402344 1.640625 6.597656 1.332031 6.832031 C 0.828125 7.222656 0.605469 7.503906 0.566406 7.476562 C 0.519531 7.464844 0.558594 7.382812 0.652344 7.242188 Z M 21.164062 18.777344 C 21.238281 18.730469 21.332031 18.675781 21.445312 18.609375 L 21.621094 18.507812 L 21.816406 18.375 L 22.285156 18.085938 L 22.835938 17.722656 C 23.226562 17.460938 23.667969 17.144531 24.144531 16.789062 C 25.097656 16.078125 26.207031 15.171875 27.480469 14.210938 C 28.113281 13.734375 28.804688 13.25 29.542969 12.78125 C 30.308594 12.296875 31.113281 11.875 31.953125 11.53125 L 32.289062 11.40625 L 32.449219 11.34375 L 32.617188 11.285156 L 33.269531 11.070312 C 33.710938 10.960938 34.140625 10.839844 34.578125 10.761719 L 34.90625 10.699219 C 35.007812 10.679688 35.121094 10.671875 35.222656 10.652344 C 35.4375 10.625 35.652344 10.59375 35.859375 10.578125 C 36.277344 10.546875 36.6875 10.511719 37.101562 10.519531 L 37.546875 10.519531 L 37.699219 10.53125 L 38.277344 10.558594 L 38.417969 10.566406 L 38.558594 10.585938 L 38.835938 10.613281 C 39.023438 10.640625 39.203125 10.652344 39.378906 10.679688 L 39.902344 10.773438 C 39.988281 10.792969 40.070312 10.800781 40.15625 10.820312 L 40.398438 10.875 L 40.875 10.988281 C 41.023438 11.023438 41.171875 11.082031 41.324219 11.117188 L 41.753906 11.257812 C 41.890625 11.304688 42.023438 11.359375 42.144531 11.40625 L 42.519531 11.546875 C 42.640625 11.59375 42.75 11.652344 42.863281 11.699219 L 43.179688 11.847656 C 43.285156 11.894531 43.378906 11.941406 43.472656 11.988281 L 43.964844 12.257812 C 44.097656 12.332031 44.226562 12.40625 44.347656 12.492188 C 44.460938 12.566406 44.546875 12.632812 44.621094 12.679688 C 44.761719 12.78125 44.824219 12.847656 44.816406 12.863281 C 44.804688 12.875 44.714844 12.855469 44.554688 12.78125 C 44.46875 12.742188 44.367188 12.695312 44.253906 12.640625 C 44.144531 12.585938 44.011719 12.519531 43.863281 12.453125 L 43.359375 12.230469 C 43.257812 12.183594 43.164062 12.15625 43.058594 12.109375 L 42.742188 11.988281 C 42.628906 11.949219 42.519531 11.894531 42.398438 11.855469 L 42.023438 11.734375 C 41.890625 11.699219 41.769531 11.652344 41.628906 11.613281 L 41.210938 11.5 C 41.070312 11.464844 40.921875 11.417969 40.769531 11.390625 L 40.304688 11.285156 L 40.0625 11.238281 C 39.976562 11.222656 39.894531 11.210938 39.820312 11.203125 L 39.3125 11.128906 C 39.144531 11.101562 38.96875 11.089844 38.789062 11.070312 L 38.519531 11.042969 L 38.378906 11.035156 L 38.238281 11.035156 L 37.679688 11.015625 L 37.398438 11.015625 L 37.109375 11.023438 C 36.726562 11.023438 36.324219 11.070312 35.921875 11.101562 C 35.71875 11.128906 35.519531 11.15625 35.316406 11.183594 C 35.214844 11.203125 35.109375 11.210938 35.007812 11.230469 L 34.699219 11.296875 C 34.277344 11.371094 33.867188 11.492188 33.449219 11.605469 L 32.820312 11.808594 L 32.664062 11.867188 L 32.511719 11.929688 L 32.207031 12.0625 C 31.390625 12.398438 30.617188 12.800781 29.871094 13.257812 C 29.140625 13.707031 28.46875 14.171875 27.824219 14.628906 C 26.542969 15.554688 25.414062 16.433594 24.414062 17.105469 C 23.917969 17.441406 23.453125 17.742188 23.042969 17.984375 L 22.460938 18.3125 L 21.957031 18.5625 L 21.742188 18.667969 L 21.546875 18.75 C 21.425781 18.796875 21.324219 18.84375 21.238281 18.871094 C 21.070312 18.9375 20.976562 18.957031 20.96875 18.9375 C 20.941406 18.9375 21.015625 18.882812 21.164062 18.777344 Z M 4.171875 15.058594 C 4.480469 14.789062 4.824219 14.574219 5.199219 14.414062 C 5.414062 14.324219 5.640625 14.238281 5.871094 14.183594 C 6.125 14.117188 6.375 14.070312 6.628906 14.042969 C 7.179688 13.996094 7.742188 13.996094 8.292969 14.0625 C 8.871094 14.125 9.46875 14.21875 10.074219 14.324219 C 10.382812 14.367188 10.691406 14.414062 11 14.460938 L 11.476562 14.519531 C 11.636719 14.539062 11.792969 14.554688 11.960938 14.574219 C 14.1875 14.808594 16.417969 14.816406 18.652344 14.601562 C 20.351562 14.445312 21.40625 14.246094 21.425781 14.332031 C 21.445312 14.398438 20.417969 14.734375 18.699219 15.003906 C 16.445312 15.339844 14.167969 15.378906 11.914062 15.144531 C 11.746094 15.125 11.578125 15.105469 11.421875 15.089844 L 10.933594 15.023438 C 10.617188 14.976562 10.300781 14.929688 9.992188 14.875 C 9.375 14.761719 8.796875 14.648438 8.234375 14.582031 C 7.710938 14.507812 7.1875 14.492188 6.667969 14.519531 C 6.433594 14.539062 6.199219 14.566406 5.976562 14.613281 C 5.761719 14.660156 5.554688 14.714844 5.359375 14.789062 C 5.011719 14.910156 4.675781 15.089844 4.378906 15.3125 C 4.152344 15.480469 3.949219 15.675781 3.769531 15.890625 C 3.480469 16.257812 3.398438 16.519531 3.351562 16.5 C 3.320312 16.488281 3.339844 16.210938 3.582031 15.761719 C 3.742188 15.5 3.9375 15.257812 4.171875 15.058594 Z M 45.488281 7.230469 C 45.421875 7.128906 45.339844 6.988281 45.246094 6.839844 L 44.882812 6.316406 C 44.742188 6.121094 44.5625 5.914062 44.386719 5.691406 C 44.292969 5.578125 44.191406 5.46875 44.078125 5.355469 L 43.917969 5.175781 L 43.835938 5.082031 L 43.742188 5 L 43.359375 4.636719 L 43.257812 4.53125 L 43.152344 4.4375 L 42.9375 4.253906 L 42.714844 4.066406 C 42.640625 4 42.554688 3.945312 42.472656 3.886719 C 42.304688 3.765625 42.144531 3.636719 41.96875 3.523438 C 40.554688 2.5625 38.660156 1.691406 36.445312 1.226562 C 35.289062 0.984375 34.101562 0.84375 32.914062 0.796875 C 31.636719 0.75 30.355469 0.777344 29.074219 0.878906 C 26.441406 1.085938 23.949219 1.476562 21.660156 1.757812 C 20.519531 1.898438 19.425781 2.011719 18.398438 2.085938 C 17.371094 2.160156 16.410156 2.1875 15.539062 2.179688 C 14.671875 2.160156 13.878906 2.113281 13.175781 2.039062 C 13.007812 2.019531 12.851562 2 12.683594 1.972656 C 12.515625 1.953125 12.363281 1.9375 12.222656 1.90625 C 11.933594 1.859375 11.664062 1.8125 11.421875 1.757812 L 10.785156 1.609375 C 10.597656 1.5625 10.449219 1.515625 10.328125 1.476562 C 10.085938 1.402344 9.953125 1.347656 9.964844 1.328125 C 9.972656 1.308594 10.105469 1.320312 10.355469 1.367188 L 10.824219 1.441406 L 11.457031 1.542969 C 11.699219 1.582031 11.960938 1.609375 12.261719 1.644531 C 12.410156 1.664062 12.5625 1.675781 12.71875 1.683594 C 12.878906 1.691406 13.046875 1.710938 13.214844 1.722656 C 13.894531 1.769531 14.679688 1.785156 15.539062 1.777344 C 17.269531 1.75 19.324219 1.554688 21.59375 1.246094 C 23.863281 0.9375 26.367188 0.523438 29.027344 0.320312 C 30.328125 0.199219 31.636719 0.171875 32.933594 0.226562 C 34.148438 0.273438 35.363281 0.433594 36.558594 0.695312 C 38.835938 1.214844 40.761719 2.140625 42.191406 3.167969 C 42.367188 3.300781 42.535156 3.441406 42.703125 3.5625 C 42.789062 3.625 42.871094 3.691406 42.949219 3.757812 C 43.023438 3.824219 43.097656 3.886719 43.171875 3.953125 L 43.386719 4.148438 L 43.488281 4.253906 L 43.59375 4.363281 C 43.722656 4.496094 43.84375 4.625 43.964844 4.757812 L 44.058594 4.851562 L 44.144531 4.953125 L 44.300781 5.148438 C 44.40625 5.269531 44.507812 5.390625 44.601562 5.511719 C 44.769531 5.757812 44.9375 5.980469 45.066406 6.1875 L 45.394531 6.757812 C 45.480469 6.925781 45.535156 7.074219 45.589844 7.1875 C 45.695312 7.417969 45.742188 7.550781 45.722656 7.558594 C 45.695312 7.558594 45.621094 7.445312 45.488281 7.230469 Z M 45.488281 7.230469 " fill-opacity="1" fill-rule="nonzero"/></g></g></g></g><g clip-path="url(#b66040087c)"><path fill="#ffffff" d="M 244.410156 180.167969 C 239.765625 177.882812 235.105469 175.628906 230.441406 173.390625 C 225.773438 171.15625 221.097656 168.941406 216.414062 166.746094 C 207.046875 162.351562 197.640625 158.035156 188.214844 153.773438 L 187.488281 153.445312 L 186.765625 153.773438 C 177.339844 158.039062 167.9375 162.355469 158.570312 166.75 C 153.882812 168.949219 149.207031 171.160156 144.542969 173.398438 C 139.875 175.632812 135.21875 177.890625 130.574219 180.171875 L 127.019531 181.921875 L 130.921875 181.789062 L 133.433594 181.707031 L 135.945312 181.617188 C 137.617188 181.554688 139.292969 181.492188 140.964844 181.421875 C 142.640625 181.355469 144.3125 181.28125 145.988281 181.203125 C 147.660156 181.121094 149.335938 181.042969 151.011719 180.941406 C 149.335938 180.84375 147.664062 180.765625 145.988281 180.683594 C 144.3125 180.605469 142.640625 180.53125 140.964844 180.464844 C 139.292969 180.394531 137.617188 180.332031 135.945312 180.269531 L 134.84375 180.230469 C 138.433594 178.738281 142.011719 177.226562 145.585938 175.707031 C 150.347656 173.683594 155.097656 171.636719 159.84375 169.570312 C 169.089844 165.546875 178.300781 161.453125 187.488281 157.308594 C 196.679688 161.457031 205.890625 165.550781 215.136719 169.574219 C 219.878906 171.640625 224.628906 173.6875 229.390625 175.710938 C 232.960938 177.230469 236.535156 178.738281 240.117188 180.226562 C 239.753906 180.242188 239.394531 180.253906 239.035156 180.265625 C 237.363281 180.328125 235.6875 180.390625 234.015625 180.460938 C 232.339844 180.527344 230.667969 180.605469 228.992188 180.683594 C 227.320312 180.765625 225.644531 180.84375 223.96875 180.941406 C 225.644531 181.042969 227.316406 181.125 228.992188 181.203125 C 230.667969 181.28125 232.339844 181.359375 234.015625 181.425781 C 235.6875 181.496094 237.363281 181.558594 239.035156 181.621094 C 240.710938 181.683594 242.382812 181.738281 244.058594 181.792969 L 247.976562 181.921875 Z M 244.410156 180.167969 " fill-opacity="1" fill-rule="nonzero"/></g><path stroke-linecap="butt" transform="matrix(0.75, 0, 0, 0.75, 106.678994, 180.916584)" fill="none" stroke-linejoin="miter" d="M 0.000924274 2.001846 L 205.891563 2.001846 " stroke="#ffffff" stroke-width="4" stroke-opacity="1" stroke-miterlimit="4"/><g clip-path="url(#2ca00af839)"><path fill="#ffffff" d="M 253.816406 168.773438 C 250.226562 170.023438 248.292969 171.367188 248.390625 174.890625 C 248.523438 179.859375 251.953125 182.414062 251.953125 182.414062 L 240.632812 182.414062 C 240.632812 182.414062 244.0625 179.859375 244.199219 174.890625 C 244.292969 171.367188 242.359375 170.023438 238.769531 168.773438 C 238.492188 168.679688 238.34375 168.378906 238.4375 168.105469 C 238.527344 167.84375 238.800781 167.695312 239.066406 167.761719 C 240.085938 168.015625 242.578125 168.753906 244.765625 170.328125 C 244.113281 168.835938 242.699219 166.132812 239.933594 162.8125 C 239.761719 162.605469 239.789062 162.304688 240 162.136719 C 240.175781 161.996094 240.425781 162 240.597656 162.144531 C 241.378906 162.804688 243.535156 164.738281 245.292969 167.3125 C 245.472656 164.582031 245.625 161.53125 245.730469 159.664062 C 245.746094 159.359375 245.988281 159.121094 246.292969 159.121094 C 246.597656 159.121094 246.835938 159.359375 246.855469 159.664062 C 246.976562 161.554688 247.136719 164.277344 247.292969 167.3125 C 249.050781 164.738281 251.207031 162.804688 251.988281 162.144531 C 252.160156 162 252.410156 161.996094 252.589844 162.136719 C 252.796875 162.304688 252.824219 162.605469 252.652344 162.8125 C 249.886719 166.132812 248.472656 168.835938 247.820312 170.328125 C 250.007812 168.753906 252.5 168.015625 253.519531 167.761719 C 253.785156 167.695312 254.058594 167.84375 254.148438 168.105469 C 254.242188 168.378906 254.09375 168.679688 253.816406 168.773438 Z M 246.292969 148.242188 C 244.804688 149.425781 243.847656 151.253906 243.847656 153.308594 C 243.847656 155.199219 244.660156 156.898438 245.953125 158.082031 C 245.925781 157.671875 245.914062 157.183594 245.914062 156.542969 C 245.914062 154.492188 246.0625 151.375 246.292969 150.1875 C 246.523438 151.375 246.671875 154.492188 246.671875 156.542969 C 246.671875 157.183594 246.660156 157.671875 246.632812 158.082031 C 247.925781 156.898438 248.738281 155.199219 248.738281 153.308594 C 248.738281 151.253906 247.78125 149.425781 246.292969 148.242188 Z M 240.757812 150.023438 C 241.550781 150.167969 242.234375 150.636719 242.578125 151.367188 C 242.894531 152.039062 242.851562 152.792969 242.535156 153.457031 C 242.476562 153.304688 242.402344 153.128906 242.292969 152.902344 C 241.953125 152.171875 241.371094 151.09375 241.082031 150.714844 C 241.1875 151.179688 241.648438 152.316406 241.992188 153.042969 C 242.097656 153.269531 242.1875 153.441406 242.265625 153.582031 C 241.550781 153.402344 240.945312 152.953125 240.628906 152.28125 C 240.289062 151.550781 240.363281 150.722656 240.757812 150.023438 Z M 234.085938 155.617188 C 235.550781 155.390625 237.097656 155.800781 238.273438 156.878906 C 239.386719 157.898438 239.933594 159.300781 239.902344 160.699219 C 239.636719 160.363281 239.3125 160.007812 238.683594 159.433594 C 237.625 158.460938 235.9375 157.070312 235.203125 156.640625 C 235.695312 157.335938 237.226562 158.898438 238.285156 159.867188 C 238.914062 160.445312 239.292969 160.738281 239.652344 160.972656 C 238.261719 161.125 236.816406 160.699219 235.707031 159.679688 C 234.53125 158.601562 233.984375 157.09375 234.085938 155.617188 Z M 235.097656 166.316406 C 236.964844 167.167969 239.023438 167.058594 240.722656 166.199219 C 240.261719 164.351562 238.996094 162.722656 237.128906 161.867188 C 235.261719 161.015625 233.203125 161.125 231.503906 161.988281 C 231.964844 163.835938 233.230469 165.464844 235.097656 166.316406 Z M 236.234375 164.480469 C 234.828125 163.839844 233.621094 163.160156 232.886719 162.617188 C 233.777344 162.824219 235.078125 163.289062 236.484375 163.929688 C 237.890625 164.574219 239.09375 165.253906 239.832031 165.792969 C 238.941406 165.589844 237.640625 165.125 236.234375 164.480469 Z M 235.265625 172.035156 C 236.527344 171.5625 237.429688 170.558594 237.820312 169.371094 C 236.75 168.726562 235.40625 168.558594 234.144531 169.027344 C 232.882812 169.496094 231.976562 170.503906 231.589844 171.691406 C 232.660156 172.335938 234.003906 172.503906 235.265625 172.035156 Z M 234.941406 170.65625 C 233.988281 171.007812 233.117188 171.253906 232.523438 171.34375 C 233.03125 171.027344 233.851562 170.636719 234.800781 170.28125 C 235.753906 169.929688 236.625 169.683594 237.21875 169.59375 C 236.710938 169.910156 235.890625 170.300781 234.941406 170.65625 Z M 240.027344 174.765625 C 240.949219 173.789062 241.316406 172.484375 241.140625 171.246094 C 239.894531 171.144531 238.617188 171.585938 237.691406 172.5625 C 236.769531 173.542969 236.398438 174.847656 236.574219 176.082031 C 237.820312 176.1875 239.101562 175.746094 240.027344 174.765625 Z M 239.125 173.671875 C 238.429688 174.410156 237.75 175.015625 237.261719 175.359375 C 237.574219 174.847656 238.140625 174.136719 238.835938 173.398438 C 239.535156 172.660156 240.210938 172.058594 240.699219 171.714844 C 240.386719 172.222656 239.820312 172.933594 239.125 173.671875 Z M 241.871094 161.878906 C 242.464844 162.894531 243.464844 163.519531 244.542969 163.675781 C 244.9375 162.660156 244.878906 161.480469 244.289062 160.464844 C 243.695312 159.453125 242.695312 158.824219 241.613281 158.667969 C 241.222656 159.683594 241.277344 160.863281 241.871094 161.878906 Z M 243.007812 161.394531 C 242.5625 160.628906 242.222656 159.914062 242.054688 159.417969 C 242.402344 159.808594 242.859375 160.453125 243.308594 161.21875 C 243.753906 161.984375 244.09375 162.699219 244.261719 163.191406 C 243.910156 162.804688 243.457031 162.15625 243.007812 161.394531 Z M 239.226562 156.382812 C 240.171875 157.230469 241.414062 157.542969 242.574219 157.347656 C 242.644531 156.167969 242.195312 154.972656 241.246094 154.125 C 240.296875 153.277344 239.058594 152.960938 237.898438 153.160156 C 237.828125 154.335938 238.277344 155.535156 239.226562 156.382812 Z M 240.238281 155.503906 C 239.523438 154.867188 238.9375 154.242188 238.597656 153.789062 C 239.089844 154.070312 239.773438 154.585938 240.488281 155.226562 C 241.199219 155.863281 241.789062 156.488281 242.125 156.941406 C 241.636719 156.65625 240.949219 156.144531 240.238281 155.503906 Z M 251.957031 152.28125 C 251.640625 152.953125 251.035156 153.402344 250.320312 153.582031 C 250.402344 153.441406 250.488281 153.269531 250.59375 153.042969 C 250.9375 152.316406 251.398438 151.179688 251.503906 150.714844 C 251.214844 151.09375 250.632812 152.171875 250.292969 152.902344 C 250.183594 153.128906 250.109375 153.304688 250.050781 153.457031 C 249.734375 152.792969 249.695312 152.039062 250.007812 151.367188 C 250.351562 150.636719 251.039062 150.167969 251.828125 150.023438 C 252.222656 150.722656 252.300781 151.550781 251.957031 152.28125 Z M 256.878906 159.679688 C 255.769531 160.699219 254.324219 161.125 252.933594 160.972656 C 253.292969 160.738281 253.671875 160.445312 254.300781 159.867188 C 255.359375 158.898438 256.890625 157.335938 257.382812 156.640625 C 256.648438 157.070312 254.960938 158.460938 253.902344 159.433594 C 253.273438 160.007812 252.949219 160.363281 252.683594 160.699219 C 252.652344 159.300781 253.199219 157.898438 254.3125 156.878906 C 255.488281 155.800781 257.035156 155.390625 258.5 155.617188 C 258.601562 157.09375 258.054688 158.601562 256.878906 159.679688 Z M 261.082031 161.988281 C 259.386719 161.125 257.324219 161.015625 255.457031 161.867188 C 253.589844 162.722656 252.324219 164.351562 251.863281 166.199219 C 253.5625 167.058594 255.625 167.167969 257.488281 166.316406 C 259.355469 165.464844 260.621094 163.835938 261.082031 161.988281 Z M 252.753906 165.792969 C 253.492188 165.253906 254.695312 164.574219 256.101562 163.929688 C 257.507812 163.289062 258.808594 162.824219 259.699219 162.617188 C 258.964844 163.160156 257.757812 163.839844 256.351562 164.480469 C 254.945312 165.125 253.644531 165.589844 252.753906 165.792969 Z M 260.996094 171.691406 C 260.609375 170.503906 259.703125 169.496094 258.441406 169.027344 C 257.179688 168.558594 255.835938 168.726562 254.765625 169.371094 C 255.15625 170.558594 256.058594 171.5625 257.320312 172.035156 C 258.582031 172.503906 259.925781 172.335938 260.996094 171.691406 Z M 255.367188 169.59375 C 255.960938 169.683594 256.835938 169.929688 257.785156 170.28125 C 258.734375 170.636719 259.554688 171.027344 260.0625 171.34375 C 259.472656 171.253906 258.597656 171.007812 257.644531 170.65625 C 256.695312 170.300781 255.875 169.910156 255.367188 169.59375 Z M 256.011719 176.082031 C 256.1875 174.847656 255.820312 173.542969 254.894531 172.5625 C 253.96875 171.585938 252.691406 171.144531 251.445312 171.246094 C 251.269531 172.484375 251.636719 173.789062 252.5625 174.765625 C 253.484375 175.746094 254.765625 176.1875 256.011719 176.082031 Z M 251.886719 171.714844 C 252.375 172.058594 253.054688 172.660156 253.75 173.398438 C 254.445312 174.136719 255.011719 174.847656 255.324219 175.359375 C 254.835938 175.015625 254.15625 174.410156 253.460938 173.671875 C 252.765625 172.933594 252.199219 172.222656 251.886719 171.714844 Z M 250.972656 158.667969 C 249.894531 158.824219 248.890625 159.453125 248.296875 160.464844 C 247.707031 161.480469 247.648438 162.660156 248.042969 163.675781 C 249.121094 163.519531 250.121094 162.894531 250.714844 161.878906 C 251.308594 160.863281 251.363281 159.683594 250.972656 158.667969 Z M 248.324219 163.191406 C 248.492188 162.699219 248.832031 161.984375 249.277344 161.21875 C 249.726562 160.453125 250.183594 159.808594 250.53125 159.417969 C 250.363281 159.914062 250.023438 160.628906 249.578125 161.394531 C 249.132812 162.15625 248.675781 162.804688 248.324219 163.191406 Z M 254.6875 153.160156 C 253.527344 152.960938 252.289062 153.277344 251.339844 154.125 C 250.394531 154.972656 249.945312 156.167969 250.011719 157.347656 C 251.175781 157.542969 252.414062 157.230469 253.359375 156.382812 C 254.308594 155.535156 254.757812 154.335938 254.6875 153.160156 Z M 250.460938 156.941406 C 250.800781 156.488281 251.386719 155.863281 252.101562 155.226562 C 252.8125 154.585938 253.5 154.070312 253.988281 153.789062 C 253.652344 154.242188 253.0625 154.867188 252.351562 155.503906 C 251.636719 156.144531 250.953125 156.65625 250.460938 156.941406 Z M 250.460938 156.941406 " fill-opacity="1" fill-rule="nonzero"/></g><g transform="matrix(1, 0, 0, 1, 66, 186)"><g clip-path="url(#2079d4a387)"><g fill="#ffffff" fill-opacity="1"><g transform="translate(0.187298, 27.574902)"><g><path d="M 19.046875 -18.671875 L 19.046875 -1.4375 L 21.25 -0.859375 C 21.3125 -0.492188 21.265625 -0.160156 21.109375 0.140625 C 19.390625 0.046875 18.222656 0 17.609375 0 C 16.765625 0 15.453125 0.046875 13.671875 0.140625 C 13.609375 -0.222656 13.628906 -0.554688 13.734375 -0.859375 C 14.585938 -0.972656 15.351562 -1.164062 16.03125 -1.4375 L 16.03125 -9.765625 L 6.40625 -9.765625 L 6.40625 -1.4375 L 8.609375 -0.859375 C 8.671875 -0.492188 8.625 -0.160156 8.46875 0.140625 C 6.75 0.046875 5.582031 0 4.96875 0 C 4.125 0 2.8125 0.046875 1.03125 0.140625 C 0.976562 -0.222656 1 -0.554688 1.09375 -0.859375 C 2.125 -1.035156 2.890625 -1.226562 3.390625 -1.4375 L 3.390625 -18.671875 L 1.171875 -19.234375 C 1.117188 -19.597656 1.171875 -19.9375 1.328125 -20.25 C 3.046875 -20.15625 4.210938 -20.109375 4.828125 -20.109375 C 5.679688 -20.109375 6.992188 -20.15625 8.765625 -20.25 C 8.835938 -19.882812 8.816406 -19.546875 8.703125 -19.234375 C 7.703125 -19.066406 6.9375 -18.878906 6.40625 -18.671875 L 6.40625 -11.34375 L 16.03125 -11.34375 L 16.03125 -18.671875 L 13.8125 -19.234375 C 13.757812 -19.597656 13.804688 -19.9375 13.953125 -20.25 C 15.679688 -20.15625 16.851562 -20.109375 17.46875 -20.109375 C 18.320312 -20.109375 19.628906 -20.15625 21.390625 -20.25 C 21.472656 -19.882812 21.457031 -19.546875 21.34375 -19.234375 C 20.34375 -19.066406 19.578125 -18.878906 19.046875 -18.671875 Z M 19.046875 -18.671875 "/></g></g></g><g fill="#ffffff" fill-opacity="1"><g transform="translate(22.562083, 27.574902)"><g><path d="M 12.515625 -6.890625 L 5.859375 -6.890625 L 3.984375 -1.4375 L 6.203125 -0.859375 C 6.265625 -0.492188 6.21875 -0.160156 6.0625 0.140625 C 4.332031 0.046875 3.164062 0 2.5625 0 C 2.226562 0 1.910156 0.0078125 1.609375 0.03125 C 1.304688 0.0507812 1.007812 0.0664062 0.71875 0.078125 C 0.425781 0.0976562 0.15625 0.117188 -0.09375 0.140625 C -0.144531 -0.222656 -0.125 -0.554688 -0.03125 -0.859375 C 0.832031 -0.972656 1.570312 -1.164062 2.1875 -1.4375 L 8.984375 -20.65625 C 9.273438 -20.800781 9.648438 -20.875 10.109375 -20.875 L 17.890625 -1.4375 L 20.109375 -0.859375 C 20.160156 -0.492188 20.109375 -0.160156 19.953125 0.140625 C 18.234375 0.046875 17.066406 0 16.453125 0 C 15.460938 0 14.078125 0.046875 12.296875 0.140625 C 12.234375 -0.222656 12.25 -0.554688 12.34375 -0.859375 C 13.25 -0.972656 14.015625 -1.164062 14.640625 -1.4375 Z M 9.046875 -16.65625 L 8.984375 -16.65625 C 8.390625 -14.53125 7.96875 -13.113281 7.71875 -12.40625 L 6.375 -8.46875 L 11.890625 -8.46875 L 10.3125 -12.546875 C 9.695312 -13.960938 9.273438 -15.332031 9.046875 -16.65625 Z M 9.046875 -16.65625 "/></g></g></g><g fill="#ffffff" fill-opacity="1"><g transform="translate(42.208232, 27.574902)"><g><path d="M 10.453125 -7.296875 L 13.234375 -16.203125 L 12.34375 -18.671875 L 10.140625 -19.234375 C 10.078125 -19.597656 10.125 -19.9375 10.28125 -20.25 C 12 -20.15625 13.3125 -20.109375 14.21875 -20.109375 C 15.0625 -20.109375 16.375 -20.15625 18.15625 -20.25 C 18.207031 -19.882812 18.1875 -19.546875 18.09375 -19.234375 C 17.976562 -19.222656 17.789062 -19.195312 17.53125 -19.15625 C 17.269531 -19.113281 17.0625 -19.078125 16.90625 -19.046875 C 16.757812 -19.023438 16.578125 -18.976562 16.359375 -18.90625 C 16.140625 -18.84375 15.941406 -18.765625 15.765625 -18.671875 L 19.328125 -7.53125 C 19.992188 -5.4375 20.40625 -3.941406 20.5625 -3.046875 L 20.625 -3.046875 C 20.832031 -4.234375 21.1875 -5.726562 21.6875 -7.53125 L 24.609375 -18.671875 L 22.109375 -19.234375 C 22.054688 -19.597656 22.101562 -19.9375 22.25 -20.25 C 23.78125 -20.15625 24.863281 -20.109375 25.5 -20.109375 C 26.164062 -20.109375 27.191406 -20.15625 28.578125 -20.25 C 28.628906 -19.882812 28.609375 -19.546875 28.515625 -19.234375 C 27.441406 -19.046875 26.65625 -18.859375 26.15625 -18.671875 L 20.84375 0.578125 C 20.519531 0.722656 20.035156 0.816406 19.390625 0.859375 L 14.046875 -13.984375 L 9.359375 0.578125 C 9.078125 0.722656 8.628906 0.816406 8.015625 0.859375 L 1.671875 -18.671875 L -0.546875 -19.234375 C -0.597656 -19.597656 -0.550781 -19.9375 -0.40625 -20.25 C 1.320312 -20.15625 2.632812 -20.109375 3.53125 -20.109375 C 4.375 -20.109375 5.6875 -20.15625 7.46875 -20.25 C 7.519531 -19.863281 7.5 -19.523438 7.40625 -19.234375 C 6.507812 -19.140625 5.707031 -18.953125 5 -18.671875 L 8.015625 -7.375 C 8.660156 -5.019531 9.039062 -3.472656 9.15625 -2.734375 L 9.21875 -2.734375 C 9.40625 -3.953125 9.816406 -5.472656 10.453125 -7.296875 Z M 10.453125 -7.296875 "/></g></g></g><g fill="#ffffff" fill-opacity="1"><g transform="translate(70.700924, 27.574902)"><g><path d="M 15.59375 -18.03125 L 9.796875 -11.171875 L 16.71875 -1.78125 C 16.882812 -1.550781 17.269531 -1.347656 17.875 -1.171875 C 18.476562 -1.003906 19.007812 -0.898438 19.46875 -0.859375 C 19.53125 -0.492188 19.484375 -0.160156 19.328125 0.140625 C 17.609375 0.046875 16.441406 0 15.828125 0 C 14.671875 0 13.210938 0.046875 11.453125 0.140625 C 11.398438 -0.242188 11.421875 -0.578125 11.515625 -0.859375 C 12.515625 -0.953125 13.28125 -1.144531 13.8125 -1.4375 L 8.296875 -8.90625 L 6.40625 -8.90625 L 6.40625 -1.4375 L 8.609375 -0.859375 C 8.671875 -0.492188 8.625 -0.160156 8.46875 0.140625 C 6.75 0.046875 5.582031 0 4.96875 0 C 4.125 0 2.8125 0.046875 1.03125 0.140625 C 0.976562 -0.253906 1 -0.585938 1.09375 -0.859375 C 1.914062 -0.972656 2.679688 -1.164062 3.390625 -1.4375 L 3.390625 -18.671875 L 1.171875 -19.234375 C 1.117188 -19.597656 1.171875 -19.9375 1.328125 -20.25 C 3.046875 -20.15625 4.210938 -20.109375 4.828125 -20.109375 C 5.679688 -20.109375 6.992188 -20.15625 8.765625 -20.25 C 8.816406 -19.882812 8.796875 -19.546875 8.703125 -19.234375 C 7.804688 -19.140625 7.039062 -18.953125 6.40625 -18.671875 L 6.40625 -10.484375 L 7.5 -10.484375 L 14.15625 -18.671875 C 13.71875 -18.929688 12.984375 -19.117188 11.953125 -19.234375 C 11.890625 -19.597656 11.9375 -19.9375 12.09375 -20.25 C 13.8125 -20.15625 15 -20.109375 15.65625 -20.109375 C 16.300781 -20.109375 17.296875 -20.15625 18.640625 -20.25 C 18.691406 -19.882812 18.671875 -19.546875 18.578125 -19.234375 C 17.179688 -19.066406 16.1875 -18.664062 15.59375 -18.03125 Z M 15.59375 -18.03125 "/></g></g></g><g fill="#ffffff" fill-opacity="1"><g transform="translate(89.83008, 27.574902)"><g><path d="M 6.40625 -18.671875 L 6.40625 -1.4375 L 8.609375 -0.859375 C 8.671875 -0.492188 8.625 -0.160156 8.46875 0.140625 C 6.75 0.046875 5.582031 0 4.96875 0 C 4.125 0 2.8125 0.046875 1.03125 0.140625 C 0.976562 -0.253906 1 -0.585938 1.09375 -0.859375 C 2.144531 -0.992188 2.910156 -1.1875 3.390625 -1.4375 L 3.390625 -18.671875 L 1.171875 -19.234375 C 1.117188 -19.597656 1.171875 -19.9375 1.328125 -20.25 C 3.046875 -20.15625 4.210938 -20.109375 4.828125 -20.109375 C 5.679688 -20.109375 6.992188 -20.15625 8.765625 -20.25 C 8.816406 -19.863281 8.796875 -19.523438 8.703125 -19.234375 C 7.703125 -19.066406 6.9375 -18.878906 6.40625 -18.671875 Z M 6.40625 -18.671875 "/></g></g></g><g fill="#ffffff" fill-opacity="1"><g transform="translate(99.566994, 27.574902)"><g><path d="M 16.96875 -18.671875 L 14.765625 -19.234375 C 14.703125 -19.597656 14.75 -19.9375 14.90625 -20.25 C 16.144531 -20.15625 17.101562 -20.109375 17.78125 -20.109375 C 18.507812 -20.109375 19.5625 -20.15625 20.9375 -20.25 C 20.988281 -19.882812 20.96875 -19.546875 20.875 -19.234375 C 19.882812 -19.066406 19.117188 -18.878906 18.578125 -18.671875 L 18.578125 0.578125 C 18.367188 0.710938 18.175781 0.804688 18 0.859375 L 6.578125 -13.640625 C 6.191406 -14.097656 5.625 -15.007812 4.875 -16.375 L 4.796875 -16.375 C 4.890625 -15.78125 4.9375 -14.84375 4.9375 -13.5625 L 4.9375 -1.4375 L 7.15625 -0.828125 C 7.207031 -0.460938 7.15625 -0.128906 7 0.171875 C 6.769531 0.148438 6.453125 0.125 6.046875 0.09375 C 5.648438 0.0703125 5.285156 0.0507812 4.953125 0.03125 C 4.617188 0.0078125 4.296875 0 3.984375 0 C 3.796875 0 2.820312 0.046875 1.0625 0.140625 C 1 -0.222656 1.019531 -0.554688 1.125 -0.859375 C 1.851562 -0.972656 2.597656 -1.164062 3.359375 -1.4375 L 3.359375 -18.671875 L 1.15625 -19.234375 C 1.09375 -19.597656 1.140625 -19.9375 1.296875 -20.25 C 3.015625 -20.15625 4.179688 -20.109375 4.796875 -20.109375 L 5.9375 -20.109375 L 6.65625 -18.609375 L 15.53125 -7.203125 C 15.988281 -6.609375 16.507812 -5.671875 17.09375 -4.390625 L 17.171875 -4.390625 C 17.128906 -4.847656 17.097656 -5.191406 17.078125 -5.421875 C 17.066406 -5.648438 17.050781 -5.910156 17.03125 -6.203125 C 17.007812 -6.492188 17 -6.8125 17 -7.15625 Z M 16.96875 -18.671875 "/></g></g></g><g fill="#ffffff" fill-opacity="1"><g transform="translate(121.309905, 27.574902)"><g><path d="M 7.40625 0.546875 C 4.820312 0.546875 2.820312 0.210938 1.40625 -0.453125 C 1.40625 -2.160156 1.65625 -3.828125 2.15625 -5.453125 C 2.195312 -5.453125 2.253906 -5.457031 2.328125 -5.46875 C 2.398438 -5.476562 2.46875 -5.484375 2.53125 -5.484375 C 2.875 -5.484375 3.171875 -5.425781 3.421875 -5.3125 L 3.875 -1.5 C 5.082031 -1.207031 6.117188 -1.0625 6.984375 -1.0625 C 7.648438 -1.0625 8.335938 -1.132812 9.046875 -1.28125 C 9.753906 -1.4375 10.367188 -1.753906 10.890625 -2.234375 C 11.421875 -2.710938 11.6875 -3.363281 11.6875 -4.1875 C 11.6875 -4.9375 11.578125 -5.539062 11.359375 -6 C 11.140625 -6.457031 10.628906 -6.957031 9.828125 -7.5 C 9.035156 -8.050781 7.796875 -8.691406 6.109375 -9.421875 C 4.390625 -10.179688 3.179688 -11 2.484375 -11.875 C 1.785156 -12.75 1.457031 -13.921875 1.5 -15.390625 C 1.507812 -17.078125 2.210938 -18.359375 3.609375 -19.234375 C 5.015625 -20.117188 6.769531 -20.5625 8.875 -20.5625 C 10.65625 -20.5625 12.28125 -20.273438 13.75 -19.703125 C 13.8125 -18.242188 13.515625 -16.625 12.859375 -14.84375 C 12.785156 -14.820312 12.664062 -14.8125 12.5 -14.8125 C 12.164062 -14.8125 11.867188 -14.867188 11.609375 -14.984375 L 11.28125 -18.8125 C 10.425781 -19.0625 9.566406 -19.1875 8.703125 -19.1875 C 7.441406 -19.1875 6.382812 -18.910156 5.53125 -18.359375 C 4.675781 -17.816406 4.238281 -16.988281 4.21875 -15.875 C 4.195312 -15 4.445312 -14.28125 4.96875 -13.71875 C 5.5 -13.164062 6.617188 -12.507812 8.328125 -11.75 C 9.566406 -11.1875 10.53125 -10.71875 11.21875 -10.34375 C 11.914062 -9.976562 12.546875 -9.539062 13.109375 -9.03125 C 13.671875 -8.519531 14.078125 -7.9375 14.328125 -7.28125 C 14.578125 -6.632812 14.703125 -5.875 14.703125 -5 C 14.660156 -3.21875 13.921875 -1.847656 12.484375 -0.890625 C 11.054688 0.0664062 9.363281 0.546875 7.40625 0.546875 Z M 7.40625 0.546875 "/></g></g></g><g fill="#ffffff" fill-opacity="1"><g transform="translate(136.963642, 27.574902)"><g/></g></g><g fill="#ffffff" fill-opacity="1"><g transform="translate(143.770864, 27.574902)"><g><path d="M 19.046875 -18.671875 L 19.046875 -1.4375 L 21.25 -0.859375 C 21.3125 -0.492188 21.265625 -0.160156 21.109375 0.140625 C 19.390625 0.046875 18.222656 0 17.609375 0 C 16.765625 0 15.453125 0.046875 13.671875 0.140625 C 13.609375 -0.222656 13.628906 -0.554688 13.734375 -0.859375 C 14.585938 -0.972656 15.351562 -1.164062 16.03125 -1.4375 L 16.03125 -9.765625 L 6.40625 -9.765625 L 6.40625 -1.4375 L 8.609375 -0.859375 C 8.671875 -0.492188 8.625 -0.160156 8.46875 0.140625 C 6.75 0.046875 5.582031 0 4.96875 0 C 4.125 0 2.8125 0.046875 1.03125 0.140625 C 0.976562 -0.222656 1 -0.554688 1.09375 -0.859375 C 2.125 -1.035156 2.890625 -1.226562 3.390625 -1.4375 L 3.390625 -18.671875 L 1.171875 -19.234375 C 1.117188 -19.597656 1.171875 -19.9375 1.328125 -20.25 C 3.046875 -20.15625 4.210938 -20.109375 4.828125 -20.109375 C 5.679688 -20.109375 6.992188 -20.15625 8.765625 -20.25 C 8.835938 -19.882812 8.816406 -19.546875 8.703125 -19.234375 C 7.703125 -19.066406 6.9375 -18.878906 6.40625 -18.671875 L 6.40625 -11.34375 L 16.03125 -11.34375 L 16.03125 -18.671875 L 13.8125 -19.234375 C 13.757812 -19.597656 13.804688 -19.9375 13.953125 -20.25 C 15.679688 -20.15625 16.851562 -20.109375 17.46875 -20.109375 C 18.320312 -20.109375 19.628906 -20.15625 21.390625 -20.25 C 21.472656 -19.882812 21.457031 -19.546875 21.34375 -19.234375 C 20.34375 -19.066406 19.578125 -18.878906 19.046875 -18.671875 Z M 19.046875 -18.671875 "/></g></g></g><g fill="#ffffff" fill-opacity="1"><g transform="translate(166.145649, 27.574902)"><g><path d="M 1.265625 -10.078125 C 1.265625 -13.253906 2.15625 -15.8125 3.9375 -17.75 C 5.71875 -19.695312 7.992188 -20.671875 10.765625 -20.671875 C 13.597656 -20.671875 15.90625 -19.691406 17.6875 -17.734375 C 19.46875 -15.773438 20.359375 -13.222656 20.359375 -10.078125 C 20.359375 -6.878906 19.476562 -4.300781 17.71875 -2.34375 C 15.957031 -0.394531 13.640625 0.578125 10.765625 0.578125 C 7.878906 0.578125 5.570312 -0.394531 3.84375 -2.34375 C 2.125 -4.300781 1.265625 -6.878906 1.265625 -10.078125 Z M 17.0625 -10.28125 C 17.0625 -11.832031 16.828125 -13.28125 16.359375 -14.625 C 15.890625 -15.976562 15.15625 -17.101562 14.15625 -18 C 13.164062 -18.90625 12.007812 -19.359375 10.6875 -19.359375 C 9.613281 -19.359375 8.671875 -19.09375 7.859375 -18.5625 C 7.054688 -18.039062 6.421875 -17.320312 5.953125 -16.40625 C 5.484375 -15.5 5.132812 -14.492188 4.90625 -13.390625 C 4.675781 -12.296875 4.5625 -11.109375 4.5625 -9.828125 C 4.5625 -7.234375 5.148438 -5.070312 6.328125 -3.34375 C 7.503906 -1.613281 9.085938 -0.75 11.078125 -0.75 C 13.035156 -0.75 14.519531 -1.648438 15.53125 -3.453125 C 16.550781 -5.265625 17.0625 -7.539062 17.0625 -10.28125 Z M 17.0625 -10.28125 "/></g></g></g><g fill="#ffffff" fill-opacity="1"><g transform="translate(187.773651, 27.574902)"><g><path d="M 18.4375 -18.671875 L 18.4375 -7.890625 C 18.4375 -6.191406 18.285156 -4.816406 17.984375 -3.765625 C 17.691406 -2.710938 17.257812 -1.867188 16.6875 -1.234375 C 16.113281 -0.597656 15.363281 -0.140625 14.4375 0.140625 C 13.519531 0.429688 12.375 0.578125 11 0.578125 C 9.625 0.578125 8.445312 0.457031 7.46875 0.21875 C 6.488281 -0.0195312 5.660156 -0.441406 4.984375 -1.046875 C 4.304688 -1.648438 3.789062 -2.484375 3.4375 -3.546875 C 3.09375 -4.609375 2.921875 -5.960938 2.921875 -7.609375 L 2.921875 -18.671875 L 0.71875 -19.234375 C 0.65625 -19.597656 0.703125 -19.9375 0.859375 -20.25 C 2.585938 -20.15625 3.753906 -20.109375 4.359375 -20.109375 C 5.222656 -20.109375 6.535156 -20.15625 8.296875 -20.25 C 8.359375 -19.882812 8.34375 -19.546875 8.25 -19.234375 C 7.25 -19.109375 6.476562 -18.921875 5.9375 -18.671875 L 5.9375 -6.75 C 5.925781 -2.800781 7.851562 -0.835938 11.71875 -0.859375 C 12.445312 -0.859375 13.082031 -0.941406 13.625 -1.109375 C 14.175781 -1.285156 14.644531 -1.539062 15.03125 -1.875 C 15.425781 -2.21875 15.722656 -2.578125 15.921875 -2.953125 C 16.117188 -3.335938 16.28125 -3.722656 16.40625 -4.109375 C 16.53125 -4.503906 16.628906 -5.015625 16.703125 -5.640625 C 16.785156 -6.265625 16.832031 -6.773438 16.84375 -7.171875 C 16.851562 -7.578125 16.859375 -8.109375 16.859375 -8.765625 L 16.859375 -18.671875 L 14.640625 -19.234375 C 14.585938 -19.597656 14.640625 -19.9375 14.796875 -20.25 C 16.128906 -20.15625 17.101562 -20.109375 17.71875 -20.109375 C 18.375 -20.109375 19.398438 -20.15625 20.796875 -20.25 C 20.847656 -19.863281 20.828125 -19.523438 20.734375 -19.234375 C 19.640625 -19.085938 18.875 -18.898438 18.4375 -18.671875 Z M 18.4375 -18.671875 "/></g></g></g><g fill="#ffffff" fill-opacity="1"><g transform="translate(209.17189, 27.574902)"><g><path d="M 7.40625 0.546875 C 4.820312 0.546875 2.820312 0.210938 1.40625 -0.453125 C 1.40625 -2.160156 1.65625 -3.828125 2.15625 -5.453125 C 2.195312 -5.453125 2.253906 -5.457031 2.328125 -5.46875 C 2.398438 -5.476562 2.46875 -5.484375 2.53125 -5.484375 C 2.875 -5.484375 3.171875 -5.425781 3.421875 -5.3125 L 3.875 -1.5 C 5.082031 -1.207031 6.117188 -1.0625 6.984375 -1.0625 C 7.648438 -1.0625 8.335938 -1.132812 9.046875 -1.28125 C 9.753906 -1.4375 10.367188 -1.753906 10.890625 -2.234375 C 11.421875 -2.710938 11.6875 -3.363281 11.6875 -4.1875 C 11.6875 -4.9375 11.578125 -5.539062 11.359375 -6 C 11.140625 -6.457031 10.628906 -6.957031 9.828125 -7.5 C 9.035156 -8.050781 7.796875 -8.691406 6.109375 -9.421875 C 4.390625 -10.179688 3.179688 -11 2.484375 -11.875 C 1.785156 -12.75 1.457031 -13.921875 1.5 -15.390625 C 1.507812 -17.078125 2.210938 -18.359375 3.609375 -19.234375 C 5.015625 -20.117188 6.769531 -20.5625 8.875 -20.5625 C 10.65625 -20.5625 12.28125 -20.273438 13.75 -19.703125 C 13.8125 -18.242188 13.515625 -16.625 12.859375 -14.84375 C 12.785156 -14.820312 12.664062 -14.8125 12.5 -14.8125 C 12.164062 -14.8125 11.867188 -14.867188 11.609375 -14.984375 L 11.28125 -18.8125 C 10.425781 -19.0625 9.566406 -19.1875 8.703125 -19.1875 C 7.441406 -19.1875 6.382812 -18.910156 5.53125 -18.359375 C 4.675781 -17.816406 4.238281 -16.988281 4.21875 -15.875 C 4.195312 -15 4.445312 -14.28125 4.96875 -13.71875 C 5.5 -13.164062 6.617188 -12.507812 8.328125 -11.75 C 9.566406 -11.1875 10.53125 -10.71875 11.21875 -10.34375 C 11.914062 -9.976562 12.546875 -9.539062 13.109375 -9.03125 C 13.671875 -8.519531 14.078125 -7.9375 14.328125 -7.28125 C 14.578125 -6.632812 14.703125 -5.875 14.703125 -5 C 14.660156 -3.21875 13.921875 -1.847656 12.484375 -0.890625 C 11.054688 0.0664062 9.363281 0.546875 7.40625 0.546875 Z M 7.40625 0.546875 "/></g></g></g><g fill="#ffffff" fill-opacity="1"><g transform="translate(224.825628, 27.574902)"><g><path d="M 11.75 -9.484375 L 6.40625 -9.484375 L 6.40625 -1.296875 L 14.734375 -1.296875 L 15.328125 -5.109375 C 15.710938 -5.191406 16.050781 -5.164062 16.34375 -5.03125 C 16.613281 -3.894531 16.726562 -2.21875 16.6875 0 L 4.96875 0 C 4.195312 0 2.925781 0.046875 1.15625 0.140625 C 1.09375 -0.222656 1.109375 -0.554688 1.203125 -0.859375 C 2.203125 -1.054688 2.929688 -1.25 3.390625 -1.4375 L 3.390625 -18.671875 L 1.171875 -19.234375 C 1.117188 -19.597656 1.171875 -19.9375 1.328125 -20.25 C 3.046875 -20.15625 4.210938 -20.109375 4.828125 -20.109375 L 15.875 -20.109375 C 15.914062 -18.148438 15.8125 -16.472656 15.5625 -15.078125 C 15.28125 -14.960938 14.9375 -14.929688 14.53125 -14.984375 L 13.78125 -18.8125 L 6.40625 -18.8125 L 6.40625 -11.0625 L 11.75 -11.0625 L 12.296875 -13.578125 C 12.734375 -13.710938 13.113281 -13.664062 13.4375 -13.4375 C 13.363281 -12.695312 13.328125 -11.675781 13.328125 -10.375 C 13.328125 -8.9375 13.363281 -7.804688 13.4375 -6.984375 C 13.09375 -6.847656 12.710938 -6.828125 12.296875 -6.921875 Z M 11.75 -9.484375 "/></g></g></g></g></g><g transform="matrix(1, 0, 0, 1, 88, 218)"><g clip-path="url(#2e7e9d3370)"><g fill="#ffffff" fill-opacity="1"><g transform="translate(1.027909, 16.19102)"><g><path d="M 6.9375 -0.78125 C 6.769531 -0.632812 6.570312 -0.503906 6.34375 -0.390625 C 6.125 -0.273438 5.890625 -0.175781 5.640625 -0.09375 C 5.398438 -0.0195312 5.15625 0.0351562 4.90625 0.078125 C 4.664062 0.117188 4.4375 0.140625 4.21875 0.140625 C 3.65625 0.140625 3.144531 0.046875 2.6875 -0.140625 C 2.226562 -0.335938 1.835938 -0.613281 1.515625 -0.96875 C 1.203125 -1.332031 0.957031 -1.769531 0.78125 -2.28125 C 0.613281 -2.789062 0.53125 -3.363281 0.53125 -4 C 0.53125 -4.726562 0.632812 -5.363281 0.84375 -5.90625 C 1.0625 -6.457031 1.34375 -6.914062 1.6875 -7.28125 C 2.039062 -7.644531 2.445312 -7.914062 2.90625 -8.09375 C 3.363281 -8.28125 3.84375 -8.375 4.34375 -8.375 C 4.75 -8.375 5.164062 -8.316406 5.59375 -8.203125 C 6.019531 -8.085938 6.441406 -7.878906 6.859375 -7.578125 L 6.515625 -6.578125 C 6.160156 -6.890625 5.796875 -7.101562 5.421875 -7.21875 C 5.046875 -7.34375 4.6875 -7.40625 4.34375 -7.40625 C 3.945312 -7.40625 3.582031 -7.335938 3.25 -7.203125 C 2.925781 -7.066406 2.640625 -6.863281 2.390625 -6.59375 C 2.148438 -6.320312 1.960938 -5.976562 1.828125 -5.5625 C 1.703125 -5.15625 1.640625 -4.679688 1.640625 -4.140625 C 1.640625 -3.640625 1.703125 -3.179688 1.828125 -2.765625 C 1.960938 -2.359375 2.148438 -2.007812 2.390625 -1.71875 C 2.628906 -1.4375 2.90625 -1.21875 3.21875 -1.0625 C 3.539062 -0.914062 3.894531 -0.84375 4.28125 -0.84375 C 4.5 -0.84375 4.71875 -0.867188 4.9375 -0.921875 C 5.15625 -0.972656 5.367188 -1.039062 5.578125 -1.125 C 5.785156 -1.21875 5.984375 -1.328125 6.171875 -1.453125 C 6.367188 -1.585938 6.546875 -1.734375 6.703125 -1.890625 Z M 6.9375 -0.78125 "/></g></g><g transform="translate(8.673461, 16.19102)"><g><path d="M 6.125 0 L 6.125 -3.796875 L 2.0625 -3.796875 L 2.0625 0 L 0.90625 0 C 0.945312 -0.226562 0.96875 -0.550781 0.96875 -0.96875 C 0.976562 -1.394531 0.984375 -1.890625 0.984375 -2.453125 L 0.984375 -5.78125 C 0.984375 -6.34375 0.976562 -6.832031 0.96875 -7.25 C 0.96875 -7.675781 0.945312 -8.003906 0.90625 -8.234375 L 2.0625 -8.234375 L 2.0625 -4.703125 L 6.125 -4.703125 L 6.125 -8.234375 L 7.265625 -8.234375 C 7.222656 -8.003906 7.195312 -7.675781 7.1875 -7.25 C 7.1875 -6.832031 7.1875 -6.34375 7.1875 -5.78125 L 7.1875 -2.453125 C 7.1875 -1.890625 7.1875 -1.394531 7.1875 -0.96875 C 7.195312 -0.550781 7.222656 -0.226562 7.265625 0 Z M 6.125 0 "/></g></g><g transform="translate(16.990071, 16.19102)"><g><path d="M 2.0625 -2.453125 C 2.0625 -1.890625 2.0625 -1.394531 2.0625 -0.96875 C 2.070312 -0.539062 2.097656 -0.21875 2.140625 0 L 0.90625 0 C 0.945312 -0.226562 0.96875 -0.550781 0.96875 -0.96875 C 0.976562 -1.394531 0.984375 -1.890625 0.984375 -2.453125 L 0.984375 -5.640625 C 0.984375 -5.910156 0.984375 -6.175781 0.984375 -6.4375 C 0.984375 -6.707031 0.976562 -6.953125 0.96875 -7.171875 C 0.96875 -7.398438 0.960938 -7.601562 0.953125 -7.78125 C 0.941406 -7.96875 0.925781 -8.117188 0.90625 -8.234375 C 1.09375 -8.234375 1.304688 -8.238281 1.546875 -8.25 C 1.753906 -8.257812 1.992188 -8.265625 2.265625 -8.265625 C 2.546875 -8.273438 2.851562 -8.28125 3.1875 -8.28125 C 3.625 -8.28125 4.023438 -8.234375 4.390625 -8.140625 C 4.753906 -8.054688 5.066406 -7.921875 5.328125 -7.734375 C 5.585938 -7.554688 5.785156 -7.320312 5.921875 -7.03125 C 6.066406 -6.738281 6.140625 -6.390625 6.140625 -5.984375 C 6.140625 -5.640625 6.082031 -5.332031 5.96875 -5.0625 C 5.863281 -4.800781 5.722656 -4.570312 5.546875 -4.375 C 5.378906 -4.1875 5.1875 -4.03125 4.96875 -3.90625 C 4.75 -3.789062 4.523438 -3.703125 4.296875 -3.640625 C 4.410156 -3.484375 4.546875 -3.289062 4.703125 -3.0625 C 4.867188 -2.84375 5.046875 -2.609375 5.234375 -2.359375 C 5.421875 -2.109375 5.609375 -1.851562 5.796875 -1.59375 C 5.984375 -1.34375 6.160156 -1.109375 6.328125 -0.890625 C 6.492188 -0.671875 6.640625 -0.476562 6.765625 -0.3125 C 6.890625 -0.15625 6.976562 -0.0507812 7.03125 0 L 5.578125 0 L 3.203125 -3.515625 L 2.0625 -3.515625 Z M 2.0625 -4.390625 L 3.125 -4.390625 C 3.757812 -4.390625 4.242188 -4.519531 4.578125 -4.78125 C 4.910156 -5.050781 5.078125 -5.421875 5.078125 -5.890625 C 5.078125 -6.378906 4.921875 -6.75 4.609375 -7 C 4.304688 -7.25 3.8125 -7.375 3.125 -7.375 C 2.925781 -7.375 2.734375 -7.375 2.546875 -7.375 C 2.367188 -7.375 2.207031 -7.367188 2.0625 -7.359375 Z M 2.0625 -4.390625 "/></g></g><g transform="translate(24.356642, 16.19102)"><g><path d="M 4.59375 -8.234375 L 4.59375 -7.40625 L 3.21875 -7.40625 L 3.21875 -0.8125 L 4.59375 -0.8125 L 4.59375 0 L 0.78125 0 L 0.78125 -0.8125 L 2.140625 -0.8125 L 2.140625 -7.40625 L 0.78125 -7.40625 L 0.78125 -8.234375 Z M 4.59375 -8.234375 "/></g></g><g transform="translate(29.860836, 16.19102)"><g><path d="M 5.40625 -6.765625 C 5.207031 -6.878906 5.019531 -6.972656 4.84375 -7.046875 C 4.675781 -7.128906 4.507812 -7.191406 4.34375 -7.234375 C 4.1875 -7.285156 4.023438 -7.320312 3.859375 -7.34375 C 3.703125 -7.363281 3.535156 -7.375 3.359375 -7.375 C 3.128906 -7.375 2.921875 -7.335938 2.734375 -7.265625 C 2.546875 -7.203125 2.382812 -7.113281 2.25 -7 C 2.113281 -6.894531 2.007812 -6.769531 1.9375 -6.625 C 1.863281 -6.476562 1.828125 -6.328125 1.828125 -6.171875 C 1.828125 -6.015625 1.847656 -5.875 1.890625 -5.75 C 1.929688 -5.632812 2.019531 -5.519531 2.15625 -5.40625 C 2.289062 -5.289062 2.476562 -5.179688 2.71875 -5.078125 C 2.96875 -4.972656 3.289062 -4.859375 3.6875 -4.734375 C 4.0625 -4.617188 4.394531 -4.488281 4.6875 -4.34375 C 4.976562 -4.207031 5.21875 -4.046875 5.40625 -3.859375 C 5.601562 -3.671875 5.75 -3.457031 5.84375 -3.21875 C 5.945312 -2.976562 6 -2.703125 6 -2.390625 C 6 -2.015625 5.925781 -1.671875 5.78125 -1.359375 C 5.632812 -1.046875 5.429688 -0.773438 5.171875 -0.546875 C 4.910156 -0.328125 4.609375 -0.15625 4.265625 -0.03125 C 3.929688 0.0820312 3.570312 0.140625 3.1875 0.140625 C 2.914062 0.140625 2.648438 0.117188 2.390625 0.078125 C 2.128906 0.046875 1.882812 0 1.65625 -0.0625 C 1.4375 -0.132812 1.226562 -0.21875 1.03125 -0.3125 C 0.84375 -0.40625 0.675781 -0.507812 0.53125 -0.625 L 0.78125 -1.78125 C 1.15625 -1.445312 1.546875 -1.207031 1.953125 -1.0625 C 2.359375 -0.914062 2.769531 -0.84375 3.1875 -0.84375 C 3.414062 -0.84375 3.632812 -0.875 3.84375 -0.9375 C 4.050781 -1 4.234375 -1.09375 4.390625 -1.21875 C 4.554688 -1.34375 4.6875 -1.492188 4.78125 -1.671875 C 4.882812 -1.847656 4.9375 -2.050781 4.9375 -2.28125 C 4.9375 -2.425781 4.910156 -2.566406 4.859375 -2.703125 C 4.816406 -2.835938 4.722656 -2.96875 4.578125 -3.09375 C 4.429688 -3.21875 4.222656 -3.34375 3.953125 -3.46875 C 3.691406 -3.59375 3.34375 -3.722656 2.90625 -3.859375 C 2.46875 -3.992188 2.109375 -4.140625 1.828125 -4.296875 C 1.546875 -4.453125 1.328125 -4.625 1.171875 -4.8125 C 1.015625 -5 0.90625 -5.195312 0.84375 -5.40625 C 0.789062 -5.613281 0.765625 -5.835938 0.765625 -6.078125 C 0.765625 -6.316406 0.8125 -6.570312 0.90625 -6.84375 C 1.007812 -7.113281 1.164062 -7.363281 1.375 -7.59375 C 1.59375 -7.820312 1.867188 -8.007812 2.203125 -8.15625 C 2.546875 -8.300781 2.953125 -8.375 3.421875 -8.375 C 3.628906 -8.375 3.828125 -8.363281 4.015625 -8.34375 C 4.203125 -8.320312 4.382812 -8.289062 4.5625 -8.25 C 4.75 -8.207031 4.925781 -8.15625 5.09375 -8.09375 C 5.269531 -8.03125 5.453125 -7.953125 5.640625 -7.859375 Z M 5.40625 -6.765625 "/></g></g><g transform="translate(36.488488, 16.19102)"><g><path d="M 6.765625 -8.234375 L 6.765625 -7.1875 C 6.546875 -7.238281 6.320312 -7.269531 6.09375 -7.28125 C 5.875 -7.289062 5.632812 -7.296875 5.375 -7.296875 L 4.03125 -7.296875 L 4.03125 -2.453125 C 4.03125 -1.890625 4.035156 -1.394531 4.046875 -0.96875 C 4.066406 -0.550781 4.097656 -0.226562 4.140625 0 L 2.84375 0 C 2.894531 -0.226562 2.925781 -0.550781 2.9375 -0.96875 C 2.957031 -1.394531 2.96875 -1.890625 2.96875 -2.453125 L 2.96875 -7.296875 L 1.640625 -7.296875 C 1.390625 -7.296875 1.148438 -7.289062 0.921875 -7.28125 C 0.703125 -7.269531 0.476562 -7.238281 0.25 -7.1875 L 0.25 -8.234375 Z M 6.765625 -8.234375 "/></g></g><g transform="translate(43.62132, 16.19102)"><g><path d="M 4.59375 -8.234375 L 4.59375 -7.40625 L 3.21875 -7.40625 L 3.21875 -0.8125 L 4.59375 -0.8125 L 4.59375 0 L 0.78125 0 L 0.78125 -0.8125 L 2.140625 -0.8125 L 2.140625 -7.40625 L 0.78125 -7.40625 L 0.78125 -8.234375 Z M 4.59375 -8.234375 "/></g></g><g transform="translate(49.125513, 16.19102)"><g><path d="M 0.21875 0 C 0.269531 -0.113281 0.320312 -0.234375 0.375 -0.359375 C 0.425781 -0.484375 0.484375 -0.625 0.546875 -0.78125 C 0.609375 -0.9375 0.675781 -1.109375 0.75 -1.296875 C 0.832031 -1.492188 0.921875 -1.726562 1.015625 -2 L 3.265625 -8.234375 L 4.484375 -8.234375 L 6.734375 -2 C 6.828125 -1.738281 6.910156 -1.507812 6.984375 -1.3125 C 7.066406 -1.113281 7.140625 -0.9375 7.203125 -0.78125 C 7.265625 -0.625 7.320312 -0.484375 7.375 -0.359375 C 7.425781 -0.234375 7.472656 -0.113281 7.515625 0 L 6.375 0 L 5.59375 -2.171875 L 2.140625 -2.171875 L 1.375 0 Z M 3.859375 -7.125 L 2.4375 -3.046875 L 5.296875 -3.046875 Z M 3.859375 -7.125 "/></g></g><g transform="translate(56.989724, 16.19102)"><g><path d="M 1.921875 -6.484375 L 1.921875 0 L 0.90625 0 C 0.945312 -0.226562 0.96875 -0.550781 0.96875 -0.96875 C 0.976562 -1.394531 0.984375 -1.890625 0.984375 -2.453125 L 0.984375 -5.78125 C 0.984375 -6.34375 0.976562 -6.832031 0.96875 -7.25 C 0.96875 -7.675781 0.945312 -8.003906 0.90625 -8.234375 L 1.921875 -8.234375 L 6.40625 -1.71875 L 6.40625 -8.234375 L 7.40625 -8.234375 C 7.375 -8.003906 7.351562 -7.675781 7.34375 -7.25 C 7.332031 -6.832031 7.328125 -6.34375 7.328125 -5.78125 L 7.328125 0 L 6.40625 0 Z M 1.921875 -6.484375 "/></g></g><g transform="translate(65.449594, 16.19102)"><g/></g><g transform="translate(68.86521, 16.19102)"><g><path d="M 5.328125 -4.703125 L 5.328125 -3.796875 L 2.0625 -3.796875 L 2.0625 -2.453125 C 2.0625 -1.890625 2.0625 -1.394531 2.0625 -0.96875 C 2.070312 -0.539062 2.097656 -0.21875 2.140625 0 L 0.90625 0 C 0.945312 -0.226562 0.96875 -0.550781 0.96875 -0.96875 C 0.976562 -1.394531 0.984375 -1.890625 0.984375 -2.453125 L 0.984375 -5.75 C 0.984375 -6.3125 0.976562 -6.804688 0.96875 -7.234375 C 0.96875 -7.671875 0.945312 -8.003906 0.90625 -8.234375 L 5.796875 -8.234375 L 5.796875 -7.296875 L 2.0625 -7.296875 L 2.0625 -4.703125 Z M 5.328125 -4.703125 "/></g></g><g transform="translate(75.349603, 16.19102)"><g><path d="M 0.21875 0 C 0.269531 -0.113281 0.320312 -0.234375 0.375 -0.359375 C 0.425781 -0.484375 0.484375 -0.625 0.546875 -0.78125 C 0.609375 -0.9375 0.675781 -1.109375 0.75 -1.296875 C 0.832031 -1.492188 0.921875 -1.726562 1.015625 -2 L 3.265625 -8.234375 L 4.484375 -8.234375 L 6.734375 -2 C 6.828125 -1.738281 6.910156 -1.507812 6.984375 -1.3125 C 7.066406 -1.113281 7.140625 -0.9375 7.203125 -0.78125 C 7.265625 -0.625 7.320312 -0.484375 7.375 -0.359375 C 7.425781 -0.234375 7.472656 -0.113281 7.515625 0 L 6.375 0 L 5.59375 -2.171875 L 2.140625 -2.171875 L 1.375 0 Z M 3.859375 -7.125 L 2.4375 -3.046875 L 5.296875 -3.046875 Z M 3.859375 -7.125 "/></g></g><g transform="translate(83.213813, 16.19102)"><g><path d="M 2.5625 -8.234375 L 4.984375 -1.15625 L 7.4375 -8.234375 L 8.6875 -8.234375 C 8.726562 -6.890625 8.769531 -5.65625 8.8125 -4.53125 C 8.832031 -4.050781 8.851562 -3.566406 8.875 -3.078125 C 8.894531 -2.597656 8.914062 -2.148438 8.9375 -1.734375 C 8.96875 -1.328125 8.992188 -0.96875 9.015625 -0.65625 C 9.035156 -0.351562 9.054688 -0.132812 9.078125 0 L 8.03125 0 L 7.875 -6.765625 L 5.5625 0 L 4.453125 0 L 2.125 -6.75 L 1.9375 0 L 0.90625 0 C 0.914062 -0.132812 0.929688 -0.351562 0.953125 -0.65625 C 0.972656 -0.96875 0.992188 -1.328125 1.015625 -1.734375 C 1.046875 -2.148438 1.070312 -2.597656 1.09375 -3.078125 C 1.113281 -3.566406 1.132812 -4.050781 1.15625 -4.53125 C 1.207031 -5.65625 1.253906 -6.890625 1.296875 -8.234375 Z M 2.5625 -8.234375 "/></g></g><g transform="translate(93.332482, 16.19102)"><g><path d="M 4.59375 -8.234375 L 4.59375 -7.40625 L 3.21875 -7.40625 L 3.21875 -0.8125 L 4.59375 -0.8125 L 4.59375 0 L 0.78125 0 L 0.78125 -0.8125 L 2.140625 -0.8125 L 2.140625 -7.40625 L 0.78125 -7.40625 L 0.78125 -8.234375 Z M 4.59375 -8.234375 "/></g></g><g transform="translate(98.836675, 16.19102)"><g><path d="M 3.328125 -0.921875 C 3.878906 -0.921875 4.367188 -0.925781 4.796875 -0.9375 C 5.222656 -0.945312 5.550781 -0.972656 5.78125 -1.015625 L 5.78125 0 L 0.90625 0 C 0.945312 -0.226562 0.96875 -0.550781 0.96875 -0.96875 C 0.976562 -1.394531 0.984375 -1.890625 0.984375 -2.453125 L 0.984375 -5.78125 C 0.984375 -6.34375 0.976562 -6.832031 0.96875 -7.25 C 0.96875 -7.675781 0.945312 -8.003906 0.90625 -8.234375 L 2.0625 -8.234375 L 2.0625 -0.921875 Z M 3.328125 -0.921875 "/></g></g><g transform="translate(104.921448, 16.19102)"><g><path d="M 1.5 -8.234375 L 3.71875 -4.5 L 5.828125 -8.234375 L 7.125 -8.234375 C 6.957031 -7.992188 6.8125 -7.773438 6.6875 -7.578125 C 6.5625 -7.390625 6.441406 -7.207031 6.328125 -7.03125 C 6.222656 -6.863281 6.117188 -6.695312 6.015625 -6.53125 C 5.921875 -6.363281 5.820312 -6.1875 5.71875 -6 L 4.203125 -3.40625 L 4.203125 -2.453125 C 4.203125 -1.890625 4.203125 -1.394531 4.203125 -0.96875 C 4.210938 -0.550781 4.238281 -0.226562 4.28125 0 L 3.046875 0 C 3.085938 -0.226562 3.109375 -0.550781 3.109375 -0.96875 C 3.117188 -1.394531 3.125 -1.890625 3.125 -2.453125 L 3.125 -3.4375 L 1.640625 -6 C 1.535156 -6.1875 1.425781 -6.367188 1.3125 -6.546875 C 1.207031 -6.722656 1.097656 -6.898438 0.984375 -7.078125 C 0.878906 -7.253906 0.757812 -7.4375 0.625 -7.625 C 0.488281 -7.820312 0.347656 -8.023438 0.203125 -8.234375 Z M 1.5 -8.234375 "/></g></g><g transform="translate(112.363419, 16.19102)"><g/></g><g transform="translate(115.779035, 16.19102)"><g><path d="M 0.984375 -5.640625 C 0.984375 -5.910156 0.984375 -6.175781 0.984375 -6.4375 C 0.984375 -6.707031 0.976562 -6.953125 0.96875 -7.171875 C 0.96875 -7.398438 0.960938 -7.601562 0.953125 -7.78125 C 0.941406 -7.96875 0.925781 -8.117188 0.90625 -8.234375 C 1.019531 -8.234375 1.179688 -8.238281 1.390625 -8.25 C 1.609375 -8.257812 1.835938 -8.265625 2.078125 -8.265625 C 2.316406 -8.273438 2.5625 -8.28125 2.8125 -8.28125 C 3.0625 -8.28125 3.28125 -8.28125 3.46875 -8.28125 C 3.664062 -8.28125 3.898438 -8.265625 4.171875 -8.234375 C 4.453125 -8.203125 4.738281 -8.132812 5.03125 -8.03125 C 5.320312 -7.9375 5.609375 -7.796875 5.890625 -7.609375 C 6.171875 -7.421875 6.425781 -7.175781 6.65625 -6.875 C 6.882812 -6.570312 7.066406 -6.195312 7.203125 -5.75 C 7.335938 -5.3125 7.40625 -4.785156 7.40625 -4.171875 C 7.40625 -3.617188 7.34375 -3.128906 7.21875 -2.703125 C 7.101562 -2.273438 6.941406 -1.898438 6.734375 -1.578125 C 6.523438 -1.265625 6.28125 -1.003906 6 -0.796875 C 5.726562 -0.585938 5.441406 -0.414062 5.140625 -0.28125 C 4.835938 -0.15625 4.53125 -0.0664062 4.21875 -0.015625 C 3.914062 0.0351562 3.628906 0.0625 3.359375 0.0625 C 3.265625 0.0625 3.15625 0.0546875 3.03125 0.046875 C 2.914062 0.046875 2.789062 0.046875 2.65625 0.046875 C 2.53125 0.046875 2.394531 0.0390625 2.25 0.03125 C 2.113281 0.03125 1.984375 0.03125 1.859375 0.03125 C 1.546875 0.0195312 1.226562 0.0078125 0.90625 0 C 0.925781 -0.113281 0.941406 -0.257812 0.953125 -0.4375 C 0.960938 -0.613281 0.96875 -0.8125 0.96875 -1.03125 C 0.976562 -1.257812 0.984375 -1.5 0.984375 -1.75 C 0.984375 -2.007812 0.984375 -2.28125 0.984375 -2.5625 Z M 2.0625 -0.921875 C 2.195312 -0.910156 2.367188 -0.898438 2.578125 -0.890625 C 2.785156 -0.878906 3.023438 -0.875 3.296875 -0.875 C 3.671875 -0.875 4.039062 -0.929688 4.40625 -1.046875 C 4.769531 -1.160156 5.09375 -1.34375 5.375 -1.59375 C 5.65625 -1.84375 5.878906 -2.171875 6.046875 -2.578125 C 6.222656 -2.984375 6.3125 -3.476562 6.3125 -4.0625 C 6.3125 -4.6875 6.226562 -5.210938 6.0625 -5.640625 C 5.90625 -6.066406 5.691406 -6.40625 5.421875 -6.65625 C 5.148438 -6.914062 4.832031 -7.097656 4.46875 -7.203125 C 4.113281 -7.316406 3.734375 -7.375 3.328125 -7.375 C 3.234375 -7.375 3.125 -7.375 3 -7.375 C 2.882812 -7.375 2.769531 -7.375 2.65625 -7.375 C 2.539062 -7.375 2.429688 -7.367188 2.328125 -7.359375 C 2.222656 -7.359375 2.132812 -7.359375 2.0625 -7.359375 Z M 2.0625 -0.921875 "/></g></g><g transform="translate(123.869446, 16.19102)"><g><path d="M 5.265625 -4.765625 L 5.265625 -3.859375 L 2.0625 -3.859375 L 2.0625 -0.921875 L 3.546875 -0.921875 C 4.097656 -0.921875 4.566406 -0.925781 4.953125 -0.9375 C 5.335938 -0.945312 5.640625 -0.972656 5.859375 -1.015625 L 5.859375 0 L 0.90625 0 C 0.945312 -0.226562 0.96875 -0.550781 0.96875 -0.96875 C 0.976562 -1.394531 0.984375 -1.890625 0.984375 -2.453125 L 0.984375 -5.78125 C 0.984375 -6.34375 0.976562 -6.832031 0.96875 -7.25 C 0.96875 -7.675781 0.945312 -8.003906 0.90625 -8.234375 L 5.6875 -8.234375 L 5.6875 -7.296875 L 2.0625 -7.296875 L 2.0625 -4.765625 Z M 5.265625 -4.765625 "/></g></g><g transform="translate(130.406618, 16.19102)"><g><path d="M 7.375 -8.234375 C 7.320312 -8.117188 7.269531 -8 7.21875 -7.875 C 7.175781 -7.75 7.125 -7.601562 7.0625 -7.4375 C 7 -7.28125 6.925781 -7.097656 6.84375 -6.890625 C 6.769531 -6.679688 6.6875 -6.441406 6.59375 -6.171875 L 4.421875 0 L 3.15625 0 L 0.953125 -6.171875 C 0.859375 -6.441406 0.773438 -6.675781 0.703125 -6.875 C 0.628906 -7.082031 0.5625 -7.265625 0.5 -7.421875 C 0.445312 -7.585938 0.394531 -7.734375 0.34375 -7.859375 C 0.289062 -7.992188 0.242188 -8.117188 0.203125 -8.234375 L 1.40625 -8.234375 L 3.796875 -1.09375 L 6.171875 -8.234375 Z M 7.375 -8.234375 "/></g></g><g transform="translate(138.104949, 16.19102)"><g><path d="M 5.265625 -4.765625 L 5.265625 -3.859375 L 2.0625 -3.859375 L 2.0625 -0.921875 L 3.546875 -0.921875 C 4.097656 -0.921875 4.566406 -0.925781 4.953125 -0.9375 C 5.335938 -0.945312 5.640625 -0.972656 5.859375 -1.015625 L 5.859375 0 L 0.90625 0 C 0.945312 -0.226562 0.96875 -0.550781 0.96875 -0.96875 C 0.976562 -1.394531 0.984375 -1.890625 0.984375 -2.453125 L 0.984375 -5.78125 C 0.984375 -6.34375 0.976562 -6.832031 0.96875 -7.25 C 0.96875 -7.675781 0.945312 -8.003906 0.90625 -8.234375 L 5.6875 -8.234375 L 5.6875 -7.296875 L 2.0625 -7.296875 L 2.0625 -4.765625 Z M 5.265625 -4.765625 "/></g></g><g transform="translate(144.642122, 16.19102)"><g><path d="M 3.328125 -0.921875 C 3.878906 -0.921875 4.367188 -0.925781 4.796875 -0.9375 C 5.222656 -0.945312 5.550781 -0.972656 5.78125 -1.015625 L 5.78125 0 L 0.90625 0 C 0.945312 -0.226562 0.96875 -0.550781 0.96875 -0.96875 C 0.976562 -1.394531 0.984375 -1.890625 0.984375 -2.453125 L 0.984375 -5.78125 C 0.984375 -6.34375 0.976562 -6.832031 0.96875 -7.25 C 0.96875 -7.675781 0.945312 -8.003906 0.90625 -8.234375 L 2.0625 -8.234375 L 2.0625 -0.921875 Z M 3.328125 -0.921875 "/></g></g><g transform="translate(150.726894, 16.19102)"><g><path d="M 6.453125 -4.03125 C 6.453125 -4.550781 6.394531 -5.015625 6.28125 -5.421875 C 6.164062 -5.835938 6.003906 -6.191406 5.796875 -6.484375 C 5.585938 -6.773438 5.332031 -6.992188 5.03125 -7.140625 C 4.738281 -7.296875 4.414062 -7.375 4.0625 -7.375 C 3.707031 -7.375 3.378906 -7.300781 3.078125 -7.15625 C 2.773438 -7.007812 2.515625 -6.796875 2.296875 -6.515625 C 2.085938 -6.242188 1.925781 -5.910156 1.8125 -5.515625 C 1.695312 -5.128906 1.640625 -4.691406 1.640625 -4.203125 C 1.640625 -3.691406 1.695312 -3.226562 1.8125 -2.8125 C 1.925781 -2.394531 2.085938 -2.039062 2.296875 -1.75 C 2.503906 -1.457031 2.757812 -1.234375 3.0625 -1.078125 C 3.363281 -0.921875 3.695312 -0.84375 4.0625 -0.84375 C 4.40625 -0.84375 4.722656 -0.914062 5.015625 -1.0625 C 5.304688 -1.207031 5.554688 -1.414062 5.765625 -1.6875 C 5.984375 -1.957031 6.148438 -2.289062 6.265625 -2.6875 C 6.390625 -3.082031 6.453125 -3.53125 6.453125 -4.03125 Z M 7.546875 -4.171875 C 7.546875 -3.492188 7.445312 -2.890625 7.25 -2.359375 C 7.050781 -1.828125 6.785156 -1.375 6.453125 -1 C 6.117188 -0.625 5.738281 -0.335938 5.3125 -0.140625 C 4.894531 0.046875 4.457031 0.140625 4 0.140625 C 3.550781 0.140625 3.117188 0.0507812 2.703125 -0.125 C 2.285156 -0.3125 1.914062 -0.582031 1.59375 -0.9375 C 1.269531 -1.300781 1.007812 -1.742188 0.8125 -2.265625 C 0.625 -2.785156 0.53125 -3.382812 0.53125 -4.0625 C 0.53125 -4.738281 0.628906 -5.34375 0.828125 -5.875 C 1.035156 -6.40625 1.304688 -6.851562 1.640625 -7.21875 C 1.972656 -7.59375 2.351562 -7.878906 2.78125 -8.078125 C 3.21875 -8.273438 3.660156 -8.375 4.109375 -8.375 C 4.554688 -8.375 4.988281 -8.28125 5.40625 -8.09375 C 5.820312 -7.914062 6.1875 -7.644531 6.5 -7.28125 C 6.820312 -6.925781 7.078125 -6.488281 7.265625 -5.96875 C 7.453125 -5.445312 7.546875 -4.847656 7.546875 -4.171875 Z M 7.546875 -4.171875 "/></g></g><g transform="translate(158.960565, 16.19102)"><g><path d="M 2.0625 -2.453125 C 2.0625 -1.890625 2.0625 -1.394531 2.0625 -0.96875 C 2.070312 -0.539062 2.097656 -0.21875 2.140625 0 L 0.90625 0 C 0.945312 -0.226562 0.96875 -0.550781 0.96875 -0.96875 C 0.976562 -1.394531 0.984375 -1.890625 0.984375 -2.453125 L 0.984375 -5.640625 C 0.984375 -5.910156 0.984375 -6.175781 0.984375 -6.4375 C 0.984375 -6.707031 0.976562 -6.953125 0.96875 -7.171875 C 0.96875 -7.398438 0.960938 -7.601562 0.953125 -7.78125 C 0.941406 -7.96875 0.925781 -8.117188 0.90625 -8.234375 C 1.132812 -8.234375 1.382812 -8.238281 1.65625 -8.25 C 1.875 -8.257812 2.125 -8.265625 2.40625 -8.265625 C 2.695312 -8.273438 2.992188 -8.28125 3.296875 -8.28125 C 3.753906 -8.28125 4.164062 -8.226562 4.53125 -8.125 C 4.90625 -8.019531 5.21875 -7.863281 5.46875 -7.65625 C 5.726562 -7.445312 5.925781 -7.1875 6.0625 -6.875 C 6.207031 -6.570312 6.28125 -6.210938 6.28125 -5.796875 C 6.28125 -5.390625 6.210938 -5.019531 6.078125 -4.6875 C 5.941406 -4.351562 5.742188 -4.070312 5.484375 -3.84375 C 5.234375 -3.613281 4.921875 -3.4375 4.546875 -3.3125 C 4.179688 -3.1875 3.765625 -3.125 3.296875 -3.125 C 3.085938 -3.125 2.875 -3.128906 2.65625 -3.140625 C 2.4375 -3.148438 2.238281 -3.164062 2.0625 -3.1875 Z M 2.0625 -4.0625 C 2.238281 -4.039062 2.421875 -4.023438 2.609375 -4.015625 C 2.796875 -4.003906 3 -4 3.21875 -4 C 3.613281 -4 3.9375 -4.046875 4.1875 -4.140625 C 4.445312 -4.234375 4.65625 -4.351562 4.8125 -4.5 C 4.96875 -4.65625 5.070312 -4.835938 5.125 -5.046875 C 5.1875 -5.253906 5.21875 -5.46875 5.21875 -5.6875 C 5.21875 -5.914062 5.1875 -6.128906 5.125 -6.328125 C 5.0625 -6.535156 4.953125 -6.71875 4.796875 -6.875 C 4.640625 -7.03125 4.4375 -7.148438 4.1875 -7.234375 C 3.9375 -7.328125 3.617188 -7.375 3.234375 -7.375 C 3.109375 -7.375 2.992188 -7.375 2.890625 -7.375 C 2.785156 -7.375 2.6875 -7.375 2.59375 -7.375 C 2.5 -7.375 2.410156 -7.367188 2.328125 -7.359375 C 2.242188 -7.359375 2.15625 -7.359375 2.0625 -7.359375 Z M 2.0625 -4.0625 "/></g></g><g transform="translate(165.701317, 16.19102)"><g><path d="M 2.5625 -8.234375 L 4.984375 -1.15625 L 7.4375 -8.234375 L 8.6875 -8.234375 C 8.726562 -6.890625 8.769531 -5.65625 8.8125 -4.53125 C 8.832031 -4.050781 8.851562 -3.566406 8.875 -3.078125 C 8.894531 -2.597656 8.914062 -2.148438 8.9375 -1.734375 C 8.96875 -1.328125 8.992188 -0.96875 9.015625 -0.65625 C 9.035156 -0.351562 9.054688 -0.132812 9.078125 0 L 8.03125 0 L 7.875 -6.765625 L 5.5625 0 L 4.453125 0 L 2.125 -6.75 L 1.9375 0 L 0.90625 0 C 0.914062 -0.132812 0.929688 -0.351562 0.953125 -0.65625 C 0.972656 -0.96875 0.992188 -1.328125 1.015625 -1.734375 C 1.046875 -2.148438 1.070312 -2.597656 1.09375 -3.078125 C 1.113281 -3.566406 1.132812 -4.050781 1.15625 -4.53125 C 1.207031 -5.65625 1.253906 -6.890625 1.296875 -8.234375 Z M 2.5625 -8.234375 "/></g></g><g transform="translate(175.819985, 16.19102)"><g><path d="M 5.265625 -4.765625 L 5.265625 -3.859375 L 2.0625 -3.859375 L 2.0625 -0.921875 L 3.546875 -0.921875 C 4.097656 -0.921875 4.566406 -0.925781 4.953125 -0.9375 C 5.335938 -0.945312 5.640625 -0.972656 5.859375 -1.015625 L 5.859375 0 L 0.90625 0 C 0.945312 -0.226562 0.96875 -0.550781 0.96875 -0.96875 C 0.976562 -1.394531 0.984375 -1.890625 0.984375 -2.453125 L 0.984375 -5.78125 C 0.984375 -6.34375 0.976562 -6.832031 0.96875 -7.25 C 0.96875 -7.675781 0.945312 -8.003906 0.90625 -8.234375 L 5.6875 -8.234375 L 5.6875 -7.296875 L 2.0625 -7.296875 L 2.0625 -4.765625 Z M 5.265625 -4.765625 "/></g></g><g transform="translate(182.357158, 16.19102)"><g><path d="M 1.921875 -6.484375 L 1.921875 0 L 0.90625 0 C 0.945312 -0.226562 0.96875 -0.550781 0.96875 -0.96875 C 0.976562 -1.394531 0.984375 -1.890625 0.984375 -2.453125 L 0.984375 -5.78125 C 0.984375 -6.34375 0.976562 -6.832031 0.96875 -7.25 C 0.96875 -7.675781 0.945312 -8.003906 0.90625 -8.234375 L 1.921875 -8.234375 L 6.40625 -1.71875 L 6.40625 -8.234375 L 7.40625 -8.234375 C 7.375 -8.003906 7.351562 -7.675781 7.34375 -7.25 C 7.332031 -6.832031 7.328125 -6.34375 7.328125 -5.78125 L 7.328125 0 L 6.40625 0 Z M 1.921875 -6.484375 "/></g></g><g transform="translate(190.817028, 16.19102)"><g><path d="M 6.765625 -8.234375 L 6.765625 -7.1875 C 6.546875 -7.238281 6.320312 -7.269531 6.09375 -7.28125 C 5.875 -7.289062 5.632812 -7.296875 5.375 -7.296875 L 4.03125 -7.296875 L 4.03125 -2.453125 C 4.03125 -1.890625 4.035156 -1.394531 4.046875 -0.96875 C 4.066406 -0.550781 4.097656 -0.226562 4.140625 0 L 2.84375 0 C 2.894531 -0.226562 2.925781 -0.550781 2.9375 -0.96875 C 2.957031 -1.394531 2.96875 -1.890625 2.96875 -2.453125 L 2.96875 -7.296875 L 1.640625 -7.296875 C 1.390625 -7.296875 1.148438 -7.289062 0.921875 -7.28125 C 0.703125 -7.269531 0.476562 -7.238281 0.25 -7.1875 L 0.25 -8.234375 Z M 6.765625 -8.234375 "/></g></g></g></g></g></svg>